<svg xmlns="http://www.w3.org/2000/svg" width="603" height="162" viewBox="0 0 603 162">
  <g id="Group_43" data-name="Group 43" transform="translate(-53 -1563)">
    <g id="Group_40" data-name="Group 40" transform="translate(335.333 1711.75)">
      <rect id="Rectangle_5" data-name="Rectangle 5" width="427" height="162" rx="26" transform="translate(-282.333 -148.75)" fill="#006495"/>
      <g id="Path_131" data-name="Path 131" transform="translate(-282.333 -148.75)" fill="#fff">
        <path d="M 147 160 L 26 160 C 22.75913047790527 160 19.61628341674805 159.36572265625 16.65871810913086 158.1147766113281 C 13.80106544494629 156.9060821533203 11.23419570922852 155.1753234863281 9.029435157775879 152.9705657958984 C 6.824674129486084 150.7658081054688 5.093913078308105 148.1989288330078 3.885217428207397 145.3412780761719 C 2.63428258895874 142.3837127685547 2 139.2408752441406 2 136 L 2 23 C 2 20.16413116455078 2.554956436157227 17.4141731262207 3.64945650100708 14.82647800445557 C 4.707065105438232 12.32604312896729 6.221499919891357 10.07999992370605 8.150760650634766 8.150760650634766 C 10.07999992370605 6.221499919891357 12.32604312896729 4.707065105438232 14.82647800445557 3.64945650100708 C 17.4141731262207 2.554956436157227 20.16413116455078 2 23 2 L 147 2 L 147 160 Z" stroke="none"/>
        <path d="M 23 4 C 17.9249267578125 4 13.15359497070313 5.976333618164063 9.564971923828125 9.564971923828125 C 5.976333618164063 13.15359497070313 4 17.9249267578125 4 23 L 4 136 C 4 138.9717407226563 4.58111572265625 141.8524780273438 5.72723388671875 144.5621643066406 C 6.835067749023438 147.1814270019531 8.42193603515625 149.5346221923828 10.44364929199219 151.5563507080078 C 12.46537780761719 153.5780639648438 14.81857299804688 155.1649322509766 17.43783569335938 156.2727661132813 C 20.14752197265625 157.4188842773438 23.02825927734375 158 26 158 L 145 158 L 145 4 L 23 4 M 23 0 L 149 0 L 149 162 L 26 162 C 11.64059448242188 162 0 150.3594055175781 0 136 L 0 23 C 0 10.29745483398438 10.29745483398438 0 23 0 Z" stroke="none" fill="#006495"/>
      </g>
      <g id="Group_41" data-name="Group 41" transform="translate(-482 -222)">
        <path id="Path_124" data-name="Path 124" d="M273.25,163s18.417-14.412,5.083-25.831c0,0-15.25-10.25-14.333-15.169,0,0-19.417,15.419-4.833,25.919C259.167,147.919,275.167,156.835,273.25,163Z" fill="#006495"/>
        <path id="Path_125" data-name="Path 125" d="M288.482,142.5s27.513-21.53,7.6-38.589c0,0-22.783-15.312-21.413-22.661,0,0-29.007,23.035-7.221,38.72C267.443,119.97,291.345,133.29,288.482,142.5Z" fill="#006495"/>
        <g id="Group_38" data-name="Group 38">
          <path id="Path_126" data-name="Path 126" d="M249.125,166.938,247,172.563h27.5v-5.625Z" fill="#006495"/>
          <path id="Path_127" data-name="Path 127" d="M299.875,166.938,302,172.563H274.5v-5.625Z" fill="#006495"/>
        </g>
        <g id="Group_39" data-name="Group 39">
          <path id="Path_128" data-name="Path 128" d="M263.625,181l-3.5-8.437H274.5V181Z" fill="#006495"/>
          <path id="Path_129" data-name="Path 129" d="M285.375,181l3.5-8.437H274.5V181Z" fill="#006495"/>
        </g>
        <text id="BBB" transform="translate(228.667 217.333)" fill="#006495" font-size="42" font-family="Arial-BoldMT, Arial" font-weight="700"><tspan x="0" y="0">BBB</tspan></text>
      </g>
      <text id="ACCREDITED_BUSINESS" data-name="ACCREDITED
BUSINESS" transform="translate(-116.005 -77)" fill="#fff" font-size="37" font-family="Arial-BoldMT, Arial" font-weight="700"><tspan x="0" y="0">ACCREDITED</tspan><tspan x="0" y="44.4">BUSINESS</tspan></text>
    </g>
    <g id="Group_42" data-name="Group 42" transform="translate(-17)">
      <g id="Rectangle_7" data-name="Rectangle 7" transform="translate(511 1563)" fill="#fff" stroke="#006495" stroke-width="4">
        <rect width="162" height="162" rx="25" stroke="none"/>
        <rect x="2" y="2" width="158" height="158" rx="23" fill="none"/>
      </g>
      <text id="A_" data-name="A+" transform="translate(527 1679)" fill="#006495" font-size="100" font-family="Arial-BoldMT, Arial" font-weight="700"><tspan x="0" y="0">A+</tspan></text>
    </g>
  </g>
</svg>
