<svg xmlns="http://www.w3.org/2000/svg" width="318" height="110" viewBox="0 0 318 110">
  <g id="Group_60" data-name="Group 60" transform="translate(-466 -1315)">
    <rect id="Rectangle_10" data-name="Rectangle 10" width="318" height="110" rx="20" transform="translate(466 1315)" fill="#3b5998"/>
    <path id="Rectangle_11" data-name="Rectangle 11" d="M0,0H318a0,0,0,0,1,0,0V10a20,20,0,0,1-20,20H20A20,20,0,0,1,0,10V0A0,0,0,0,1,0,0Z" transform="translate(466 1395)" fill="#8b9dc3"/>
    <path id="Path_140" data-name="Path 140" d="M21.055-12.471h8.037L31.6-20.1l2.467,7.626H42.1l-6.5,4.71L38.064-.1,31.6-4.808,25.092-.1l2.467-7.664Z" transform="translate(532 1420.128)" fill="#fff"/>
    <path id="Path_141" data-name="Path 141" d="M21.055-12.471h8.037L31.6-20.1l2.467,7.626H42.1l-6.5,4.71L38.064-.1,31.6-4.808,25.092-.1l2.467-7.664Z" transform="translate(555.471 1420.128)" fill="#fff"/>
    <path id="Path_142" data-name="Path 142" d="M21.055-12.471h8.037L31.6-20.1l2.467,7.626H42.1l-6.5,4.71L38.064-.1,31.6-4.808,25.092-.1l2.467-7.664Z" transform="translate(578.942 1420.128)" fill="#fff"/>
    <path id="Path_143" data-name="Path 143" d="M21.055-12.471h8.037L31.6-20.1l2.467,7.626H42.1l-6.5,4.71L38.064-.1,31.6-4.808,25.092-.1l2.467-7.664Z" transform="translate(602.412 1420.128)" fill="#fff"/>
    <path id="Path_144" data-name="Path 144" d="M21.055-12.471h8.037L31.6-20.1l2.467,7.626H42.1l-6.5,4.71L38.064-.1,31.6-4.808,25.092-.1l2.467-7.664Z" transform="translate(625.883 1420.128)" fill="#fff"/>
    <path id="Path_138" data-name="Path 138" d="M469.693,234.816l-1.611.5,1.016,1.346a3.5,3.5,0,0,1-2.222,5.571l-1.611.269.753,1.449a3.5,3.5,0,0,1-2.892,5.111l-20.258.009a7.524,7.524,0,0,1-4.306-1.576,4.753,4.753,0,0,0-1.124-.737l-.439-.2V227.839l2.112-1.806,7.13-13.21a5.874,5.874,0,0,0,.835-3.5l-.564-7.414a3.277,3.277,0,0,1,1.62-.429c3.078,0,5.716,4.918,5.716,8.943a11.08,11.08,0,0,1-.127,1.669l-1.238,8.028h15.457a3.811,3.811,0,0,1,2.675,1.129,3.386,3.386,0,0,1,1.016,2.413,3.489,3.489,0,0,1-1.4,2.773l-1.437,1.09,1.569.889a3.513,3.513,0,0,1-.677,6.413Z" transform="translate(295.387 1132.505)" fill="#fff"/>
    <path id="Path_139" data-name="Path 139" d="M301.668,379.983a.077.077,0,0,0-.077.067v27.539a.076.076,0,0,0,.077.066h15.861a.076.076,0,0,0,.077-.066V380.047a.077.077,0,0,0-.077-.067Z" transform="translate(414.598 976.677)" fill="#dfe3ee"/>
    <path id="Path_137" data-name="Path 137" d="M348.159,215.057a5.9,5.9,0,0,0-1.778-4.208,5.834,5.834,0,0,0,1.252-3.586,5.743,5.743,0,0,0-1.711-4.1,6.2,6.2,0,0,0-4.361-1.832H328.882l.817-5.292a13.548,13.548,0,0,0,.154-2.032c0-5.233-3.534-11.319-8.09-11.319a5.655,5.655,0,0,0-3.615,1.31l-.47.391.662,8.7a3.507,3.507,0,0,1-.508,2.107l-6.968,12.915-.26.224a2.444,2.444,0,0,0-2.413-2.086H294.68a2.443,2.443,0,0,0-2.44,2.44v25.484a2.443,2.443,0,0,0,2.44,2.44h13.511a2.443,2.443,0,0,0,2.436-2.44v-1.284l.019.015a9.863,9.863,0,0,0,5.843,2.142h0l20.3-.008h.065a5.881,5.881,0,0,0,5.4-7.258,5.887,5.887,0,0,0,3.1-7.695A5.861,5.861,0,0,0,348.159,215.057Zm-39.9,19.115a.071.071,0,0,1-.066.066H294.68a.07.07,0,0,1-.065-.066V208.688a.07.07,0,0,1,.065-.066h13.511a.071.071,0,0,1,.066.066Zm35.063-15.759-1.611.5,1.016,1.346a3.5,3.5,0,0,1-2.222,5.571l-1.611.269.753,1.449a3.5,3.5,0,0,1-2.892,5.111l-20.258.009a7.524,7.524,0,0,1-4.306-1.576,4.754,4.754,0,0,0-1.124-.737l-.439-.2V211.436l2.112-1.806,7.13-13.21a5.875,5.875,0,0,0,.835-3.5l-.564-7.414a3.277,3.277,0,0,1,1.619-.429c3.078,0,5.716,4.918,5.716,8.943a11.072,11.072,0,0,1-.127,1.669l-1.238,8.028h15.457a3.811,3.811,0,0,1,2.675,1.129,3.386,3.386,0,0,1,1.016,2.413,3.489,3.489,0,0,1-1.4,2.773l-1.437,1.09,1.569.889a3.513,3.513,0,0,1-.677,6.413Z" transform="translate(421.76 1148.908)" fill="#8b9dc3"/>
    <path id="Path_152" data-name="Path 152" d="M6.67-5.469H3.916V0H1.445V-14.219h5a5.816,5.816,0,0,1,3.8,1.1,3.907,3.907,0,0,1,1.338,3.2,4,4,0,0,1-.688,2.39A4.381,4.381,0,0,1,8.975-6.048L12.168-.127V0H9.521ZM3.916-7.461H6.455a2.824,2.824,0,0,0,1.953-.63,2.2,2.2,0,0,0,.7-1.724,2.338,2.338,0,0,0-.649-1.768,2.759,2.759,0,0,0-1.938-.645H3.916ZM18.35.2a4.91,4.91,0,0,1-3.657-1.421,5.154,5.154,0,0,1-1.4-3.784V-5.3A6.34,6.34,0,0,1,13.9-8.13a4.645,4.645,0,0,1,1.714-1.938,4.531,4.531,0,0,1,2.461-.693,4.147,4.147,0,0,1,3.335,1.377,5.823,5.823,0,0,1,1.177,3.9v.957h-6.9a3.173,3.173,0,0,0,.874,2.07,2.624,2.624,0,0,0,1.929.762,3.213,3.213,0,0,0,2.656-1.318L22.422-1.8a4.272,4.272,0,0,1-1.694,1.47A5.3,5.3,0,0,1,18.35.2Zm-.283-9.053a2,2,0,0,0-1.577.684,3.543,3.543,0,0,0-.767,1.9h4.521v-.176a2.884,2.884,0,0,0-.635-1.8A1.983,1.983,0,0,0,18.066-8.857ZM30.742,0a3.662,3.662,0,0,1-.273-.986A3.694,3.694,0,0,1,27.7.2a3.728,3.728,0,0,1-2.6-.908,2.906,2.906,0,0,1-1.006-2.246,3,3,0,0,1,1.255-2.593,6.081,6.081,0,0,1,3.589-.9h1.455v-.693a1.851,1.851,0,0,0-.459-1.313,1.819,1.819,0,0,0-1.4-.493,2.09,2.09,0,0,0-1.328.405,1.254,1.254,0,0,0-.518,1.03H24.316a2.634,2.634,0,0,1,.576-1.626,3.839,3.839,0,0,1,1.567-1.187,5.506,5.506,0,0,1,2.212-.43,4.434,4.434,0,0,1,2.959.933,3.326,3.326,0,0,1,1.133,2.622v4.766a5.4,5.4,0,0,0,.4,2.275V0ZM28.135-1.709a2.7,2.7,0,0,0,1.323-.342,2.284,2.284,0,0,0,.933-.918V-4.961H29.111a3.5,3.5,0,0,0-1.982.459,1.487,1.487,0,0,0-.664,1.3,1.387,1.387,0,0,0,.454,1.089A1.758,1.758,0,0,0,28.135-1.709ZM34.8-5.361a6.282,6.282,0,0,1,1.133-3.921,3.63,3.63,0,0,1,3.037-1.479A3.449,3.449,0,0,1,41.689-9.59V-15h2.373V0H41.914L41.8-1.094A3.5,3.5,0,0,1,38.955.2a3.609,3.609,0,0,1-3-1.494A6.512,6.512,0,0,1,34.8-5.361Zm2.373.205a4.4,4.4,0,0,0,.62,2.515,2.012,2.012,0,0,0,1.763.9,2.241,2.241,0,0,0,2.129-1.3V-7.549a2.207,2.207,0,0,0-2.109-1.27,2.027,2.027,0,0,0-1.777.913A4.9,4.9,0,0,0,37.178-5.156ZM63.1-6.738a8.724,8.724,0,0,1-.723,3.667A5.464,5.464,0,0,1,60.308-.649,5.681,5.681,0,0,1,57.217.2a5.7,5.7,0,0,1-3.081-.845,5.548,5.548,0,0,1-2.09-2.407,8.451,8.451,0,0,1-.747-3.6v-.8a8.649,8.649,0,0,1,.737-3.672,5.542,5.542,0,0,1,2.08-2.437,5.663,5.663,0,0,1,3.081-.845,5.713,5.713,0,0,1,3.081.835,5.471,5.471,0,0,1,2.075,2.4A8.63,8.63,0,0,1,63.1-7.529ZM60.625-7.48a6.216,6.216,0,0,0-.894-3.623,2.923,2.923,0,0,0-2.534-1.26,2.914,2.914,0,0,0-2.5,1.255,6.1,6.1,0,0,0-.923,3.55v.82a6.168,6.168,0,0,0,.913,3.623,2.94,2.94,0,0,0,2.534,1.279,2.906,2.906,0,0,0,2.524-1.25,6.3,6.3,0,0,0,.884-3.652Zm11.1,6.445A3.68,3.68,0,0,1,68.76.2a3.28,3.28,0,0,1-2.6-1.006,4.279,4.279,0,0,1-.884-2.91v-6.846h2.373V-3.75q0,2.012,1.67,2.012a2.345,2.345,0,0,0,2.334-1.24v-7.588h2.373V0H71.787ZM81.973-8.4a5.872,5.872,0,0,0-.967-.078,2.177,2.177,0,0,0-2.2,1.25V0H76.436V-10.566H78.7l.059,1.182a2.674,2.674,0,0,1,2.383-1.377,2.222,2.222,0,0,1,.84.137Zm11.934,2.93H91.152V0H88.682V-14.219h5a5.816,5.816,0,0,1,3.8,1.1,3.907,3.907,0,0,1,1.338,3.2,4,4,0,0,1-.688,2.39,4.381,4.381,0,0,1-1.919,1.481L99.4-.127V0H96.758ZM91.152-7.461h2.539a2.824,2.824,0,0,0,1.953-.63,2.2,2.2,0,0,0,.7-1.724,2.338,2.338,0,0,0-.649-1.768,2.759,2.759,0,0,0-1.938-.645H91.152ZM105.586.2a4.91,4.91,0,0,1-3.657-1.421,5.154,5.154,0,0,1-1.4-3.784V-5.3a6.34,6.34,0,0,1,.61-2.827,4.645,4.645,0,0,1,1.714-1.938,4.531,4.531,0,0,1,2.461-.693,4.147,4.147,0,0,1,3.335,1.377,5.822,5.822,0,0,1,1.177,3.9v.957h-6.9a3.173,3.173,0,0,0,.874,2.07,2.624,2.624,0,0,0,1.929.762,3.213,3.213,0,0,0,2.656-1.318L109.658-1.8a4.272,4.272,0,0,1-1.694,1.47A5.3,5.3,0,0,1,105.586.2ZM105.3-8.857a2,2,0,0,0-1.577.684,3.543,3.543,0,0,0-.767,1.9h4.521v-.176a2.884,2.884,0,0,0-.635-1.8A1.983,1.983,0,0,0,105.3-8.857Zm9.961,5.85,2.236-7.559h2.451L116.289,0h-2.061l-3.691-10.566H113ZM123.955,0h-2.373V-10.566h2.373Zm-2.52-13.311a1.259,1.259,0,0,1,.347-.908,1.309,1.309,0,0,1,.991-.361,1.326,1.326,0,0,1,1,.361,1.25,1.25,0,0,1,.352.908,1.221,1.221,0,0,1-.352.894,1.336,1.336,0,0,1-1,.356,1.32,1.32,0,0,1-.991-.356A1.23,1.23,0,0,1,121.436-13.311ZM131.191.2a4.91,4.91,0,0,1-3.657-1.421,5.154,5.154,0,0,1-1.4-3.784V-5.3a6.34,6.34,0,0,1,.61-2.827,4.645,4.645,0,0,1,1.714-1.938,4.531,4.531,0,0,1,2.461-.693,4.147,4.147,0,0,1,3.335,1.377,5.823,5.823,0,0,1,1.177,3.9v.957h-6.9a3.173,3.173,0,0,0,.874,2.07,2.624,2.624,0,0,0,1.929.762,3.213,3.213,0,0,0,2.656-1.318L135.264-1.8a4.272,4.272,0,0,1-1.694,1.47A5.3,5.3,0,0,1,131.191.2Zm-.283-9.053a2,2,0,0,0-1.577.684,3.543,3.543,0,0,0-.767,1.9h4.521v-.176a2.884,2.884,0,0,0-.635-1.8A1.983,1.983,0,0,0,130.908-8.857Zm15.645,5.586,1.68-7.295h2.314L147.666,0h-1.953l-2.266-7.256L141.221,0h-1.953l-2.891-10.566h2.314L140.4-3.35l2.168-7.217h1.787Zm11.5.4a1.076,1.076,0,0,0-.522-.967,5.557,5.557,0,0,0-1.733-.586,8.911,8.911,0,0,1-2.021-.645A2.7,2.7,0,0,1,152-7.559a2.813,2.813,0,0,1,1.152-2.285,4.556,4.556,0,0,1,2.93-.918,4.74,4.74,0,0,1,3.062.938,2.975,2.975,0,0,1,1.167,2.432h-2.373a1.462,1.462,0,0,0-.508-1.138,1.946,1.946,0,0,0-1.348-.454,2.1,2.1,0,0,0-1.274.361,1.139,1.139,0,0,0-.493.967.962.962,0,0,0,.459.85,6.312,6.312,0,0,0,1.855.61,8.783,8.783,0,0,1,2.192.732A3.1,3.1,0,0,1,160-4.443,2.6,2.6,0,0,1,160.391-3a2.753,2.753,0,0,1-1.182,2.31,5.039,5.039,0,0,1-3.1.884A5.464,5.464,0,0,1,153.8-.273a3.809,3.809,0,0,1-1.582-1.289,3.051,3.051,0,0,1-.566-1.768h2.3a1.672,1.672,0,0,0,.635,1.294,2.467,2.467,0,0,0,1.553.454,2.4,2.4,0,0,0,1.426-.356A1.1,1.1,0,0,0,158.057-2.871Zm20.957-3.867a8.724,8.724,0,0,1-.723,3.667,5.464,5.464,0,0,1-2.065,2.422A5.681,5.681,0,0,1,173.135.2a5.7,5.7,0,0,1-3.081-.845,5.548,5.548,0,0,1-2.09-2.407,8.451,8.451,0,0,1-.747-3.6v-.8a8.649,8.649,0,0,1,.737-3.672,5.541,5.541,0,0,1,2.08-2.437,5.663,5.663,0,0,1,3.081-.845,5.713,5.713,0,0,1,3.081.835,5.471,5.471,0,0,1,2.075,2.4,8.63,8.63,0,0,1,.742,3.647Zm-2.471-.742a6.216,6.216,0,0,0-.894-3.623,2.923,2.923,0,0,0-2.534-1.26,2.915,2.915,0,0,0-2.5,1.255,6.1,6.1,0,0,0-.923,3.55v.82a6.168,6.168,0,0,0,.913,3.623,2.94,2.94,0,0,0,2.534,1.279,2.906,2.906,0,0,0,2.524-1.25,6.3,6.3,0,0,0,.884-3.652Zm6.9-3.086.068,1.221a3.8,3.8,0,0,1,3.076-1.416q3.3,0,3.359,3.779V0h-2.373V-6.846a2.176,2.176,0,0,0-.435-1.489,1.828,1.828,0,0,0-1.421-.483,2.287,2.287,0,0,0-2.139,1.3V0h-2.373V-10.566Z" transform="translate(507 1340)" fill="#fff"/>
    <path id="Path_145" data-name="Path 145" d="M19.556-31.1a7.793,7.793,0,0,0-2.856-.586q-3.711,0-3.711,4.028V-25H18.7v5.688H12.988V0H5.3V-19.312H1.1V-25H5.3v-3.1a9,9,0,0,1,2.783-6.885A10.615,10.615,0,0,1,15.649-37.6a13.291,13.291,0,0,1,3.906.488ZM43.213,0h-7.3V-3.589h-.1A8.148,8.148,0,0,1,28.369.61a7.789,7.789,0,0,1-5.725-2.063,7.392,7.392,0,0,1-2.087-5.505q0-7.275,8.618-8.4l6.787-.9q0-4.1-4.443-4.1a15.167,15.167,0,0,0-8.5,2.661v-5.811a19.114,19.114,0,0,1,4.407-1.465,23.165,23.165,0,0,1,5.09-.635q10.693,0,10.693,10.669ZM35.962-10.156v-1.685l-4.541.586q-3.76.488-3.76,3.394A2.8,2.8,0,0,0,28.577-5.7a3.518,3.518,0,0,0,2.478.842,4.567,4.567,0,0,0,3.54-1.5A5.423,5.423,0,0,0,35.962-10.156ZM68.262-.9Q65.649.61,60.718.61a12.758,12.758,0,0,1-9.326-3.491,12.058,12.058,0,0,1-3.564-9.009q0-6.372,3.821-10.046T61.865-25.61q4.419,0,6.4,1.172V-17.9a8.8,8.8,0,0,0-5.4-1.807A7.109,7.109,0,0,0,57.6-17.761,7.242,7.242,0,0,0,55.664-12.4,7.124,7.124,0,0,0,57.52-7.19a6.819,6.819,0,0,0,5.1,1.892A10.183,10.183,0,0,0,68.262-7.1Zm27.515-9.4H79.468q.391,5.444,6.86,5.444a13.394,13.394,0,0,0,7.251-1.953v5.566A19.049,19.049,0,0,1,84.57.61q-6.055,0-9.4-3.357t-3.345-9.363q0-6.226,3.613-9.863a12.038,12.038,0,0,1,8.887-3.638q5.469,0,8.459,3.247t2.991,8.813Zm-7.153-4.736q0-5.371-4.346-5.371a4.149,4.149,0,0,0-3.21,1.538,6.981,6.981,0,0,0-1.648,3.833ZM108.179-2.905h-.1V0h-7.715V-37.012h7.715V-21.24h.1a9.154,9.154,0,0,1,8.13-4.37,8.921,8.921,0,0,1,7.446,3.32q2.612,3.32,2.612,9.082,0,6.25-3.052,10.034A9.941,9.941,0,0,1,115.161.61,7.877,7.877,0,0,1,108.179-2.905Zm-.22-10.547v2.563a5.852,5.852,0,0,0,1.392,4A4.527,4.527,0,0,0,112.915-5.3,4.73,4.73,0,0,0,117-7.336a9.843,9.843,0,0,0,1.453-5.774,7.831,7.831,0,0,0-1.331-4.846,4.49,4.49,0,0,0-3.8-1.746,4.9,4.9,0,0,0-3.845,1.733A6.584,6.584,0,0,0,107.959-13.452ZM143.286.61q-6.25,0-9.827-3.5T129.883-12.4q0-6.2,3.711-9.7t10.034-3.5q6.226,0,9.766,3.5a12.453,12.453,0,0,1,3.54,9.265q0,6.226-3.65,9.839T143.286.61Zm.2-20.312a5.146,5.146,0,0,0-4.248,1.88A8.29,8.29,0,0,0,137.72-12.5q0,7.2,5.811,7.2,5.542,0,5.542-7.4Q149.072-19.7,143.481-19.7ZM173.853.61q-6.25,0-9.827-3.5T160.449-12.4q0-6.2,3.711-9.7t10.034-3.5q6.226,0,9.766,3.5a12.453,12.453,0,0,1,3.54,9.265q0,6.226-3.65,9.839T173.853.61Zm.2-20.312a5.146,5.146,0,0,0-4.248,1.88,8.29,8.29,0,0,0-1.514,5.322q0,7.2,5.811,7.2,5.542,0,5.542-7.4Q179.639-19.7,174.048-19.7ZM217.554,0H208.3l-7.983-12.4h-.1V0H192.5V-37.012h7.715v23.56h.1L207.764-25h9.155l-8.96,11.743Z" transform="translate(477 1385)" fill="#fff"/>
    <text id="_" data-name="®" transform="translate(698 1385)" fill="#fff" font-size="10" font-family="Roboto-Medium, Roboto" font-weight="500"><tspan x="0" y="0">®</tspan></text>
  </g>
</svg>
