<svg xmlns="http://www.w3.org/2000/svg" width="290" height="110" viewBox="0 0 290 110">
  <g id="Group_51" data-name="Group 51" transform="translate(-60 -1315)">
    <rect id="Rectangle_4" data-name="Rectangle 4" width="290" height="110" rx="20" transform="translate(60 1315)" fill="#3b5998"/>
    <path id="Rectangle_9" data-name="Rectangle 9" d="M0,0H290a0,0,0,0,1,0,0V10a20,20,0,0,1-20,20H20A20,20,0,0,1,0,10V0A0,0,0,0,1,0,0Z" transform="translate(60 1395)" fill="#8b9dc3"/>
    <g id="Group_36" data-name="Group 36" transform="translate(23 -87)">
      <path id="Path_123" data-name="Path 123" d="M21.055-12.471h8.037L31.6-20.1l2.467,7.626H42.1l-6.5,4.71L38.064-.1,31.6-4.808,25.092-.1l2.467-7.664Z" transform="translate(103 1507.128)" fill="#fff"/>
      <path id="Path_123-2" data-name="Path 123" d="M21.055-12.471h8.037L31.6-20.1l2.467,7.626H42.1l-6.5,4.71L38.064-.1,31.6-4.808,25.092-.1l2.467-7.664Z" transform="translate(126.471 1507.128)" fill="#fff"/>
      <path id="Path_123-3" data-name="Path 123" d="M21.055-12.471h8.037L31.6-20.1l2.467,7.626H42.1l-6.5,4.71L38.064-.1,31.6-4.808,25.092-.1l2.467-7.664Z" transform="translate(149.942 1507.128)" fill="#fff"/>
      <path id="Path_123-4" data-name="Path 123" d="M21.055-12.471h8.037L31.6-20.1l2.467,7.626H42.1l-6.5,4.71L38.064-.1,31.6-4.808,25.092-.1l2.467-7.664Z" transform="translate(173.412 1507.128)" fill="#fff"/>
      <path id="Path_123-5" data-name="Path 123" d="M21.055-12.471h8.037L31.6-20.1l2.467,7.626H42.1l-6.5,4.71L38.064-.1,31.6-4.808,25.092-.1l2.467-7.664Z" transform="translate(196.883 1507.128)" fill="#fff"/>
    </g>
    <g id="Group_50" data-name="Group 50" transform="translate(5)">
      <g id="Group_35" data-name="Group 35" transform="translate(9 -90)">
        <path id="Path_120" data-name="Path 120" d="M469.693,234.816l-1.611.5,1.016,1.346a3.5,3.5,0,0,1-2.222,5.571l-1.611.269.753,1.449a3.5,3.5,0,0,1-2.892,5.111l-20.258.009a7.524,7.524,0,0,1-4.306-1.576,4.753,4.753,0,0,0-1.124-.737l-.439-.2V227.839l2.112-1.806,7.13-13.21a5.874,5.874,0,0,0,.835-3.5l-.564-7.414a3.277,3.277,0,0,1,1.62-.429c3.078,0,5.716,4.918,5.716,8.943a11.08,11.08,0,0,1-.127,1.669l-1.238,8.028h15.457a3.811,3.811,0,0,1,2.675,1.129,3.386,3.386,0,0,1,1.016,2.413,3.489,3.489,0,0,1-1.4,2.773l-1.437,1.09,1.569.889a3.513,3.513,0,0,1-.677,6.413Z" transform="translate(-150.613 1222.505)" fill="#fff"/>
        <path id="Path_121" data-name="Path 121" d="M301.668,379.983a.077.077,0,0,0-.077.067v27.539a.076.076,0,0,0,.077.066h15.861a.076.076,0,0,0,.077-.066V380.047a.077.077,0,0,0-.077-.067Z" transform="translate(-32.402 1066.677)" fill="#dfe3ee"/>
        <path id="Path_122" data-name="Path 122" d="M348.159,215.057a5.9,5.9,0,0,0-1.778-4.208,5.834,5.834,0,0,0,1.252-3.586,5.743,5.743,0,0,0-1.711-4.1,6.2,6.2,0,0,0-4.361-1.832H328.882l.817-5.292a13.548,13.548,0,0,0,.154-2.032c0-5.233-3.534-11.319-8.09-11.319a5.655,5.655,0,0,0-3.615,1.31l-.47.391.662,8.7a3.507,3.507,0,0,1-.508,2.107l-6.968,12.915-.26.224a2.444,2.444,0,0,0-2.413-2.086H294.68a2.443,2.443,0,0,0-2.44,2.44v25.484a2.443,2.443,0,0,0,2.44,2.44h13.511a2.443,2.443,0,0,0,2.436-2.44v-1.284l.019.015a9.863,9.863,0,0,0,5.843,2.142h0l20.3-.008h.065a5.881,5.881,0,0,0,5.4-7.258,5.887,5.887,0,0,0,3.1-7.695A5.861,5.861,0,0,0,348.159,215.057Zm-39.9,19.115a.071.071,0,0,1-.066.066H294.68a.07.07,0,0,1-.065-.066V208.688a.07.07,0,0,1,.065-.066h13.511a.071.071,0,0,1,.066.066Zm35.063-15.759-1.611.5,1.016,1.346a3.5,3.5,0,0,1-2.222,5.571l-1.611.269.753,1.449a3.5,3.5,0,0,1-2.892,5.111l-20.258.009a7.524,7.524,0,0,1-4.306-1.576,4.754,4.754,0,0,0-1.124-.737l-.439-.2V211.436l2.112-1.806,7.13-13.21a5.875,5.875,0,0,0,.835-3.5l-.564-7.414a3.277,3.277,0,0,1,1.619-.429c3.078,0,5.716,4.918,5.716,8.943a11.072,11.072,0,0,1-.127,1.669l-1.238,8.028h15.457a3.811,3.811,0,0,1,2.675,1.129,3.386,3.386,0,0,1,1.016,2.413,3.489,3.489,0,0,1-1.4,2.773l-1.437,1.09,1.569.889a3.513,3.513,0,0,1-.677,6.413Z" transform="translate(-24.24 1238.908)" fill="#8b9dc3"/>
      </g>
      <text id="Read_Our_Reviews_On" data-name="Read Our Reviews On" transform="translate(96 1340)" fill="#fff" font-size="20" font-family="Roboto-Medium, Roboto" font-weight="500"><tspan x="0" y="0">Read Our Reviews On</tspan></text>
      <text id="facebook" transform="translate(66 1385)" fill="#fff" font-size="50" font-family="Klavika-Bold, Klavika" font-weight="700"><tspan x="0" y="0">facebook</tspan></text>
    </g>
    <text id="_" data-name="®" transform="translate(260 1385)" fill="#fff" font-size="10" font-family="Roboto-Medium, Roboto" font-weight="500"><tspan x="0" y="0">®</tspan></text>
  </g>
</svg>
