<svg xmlns="http://www.w3.org/2000/svg" width="318" height="110" viewBox="0 0 318 110">
  <g id="Group_55" data-name="Group 55" transform="translate(-466 -1315)">
    <rect id="Rectangle_10" data-name="Rectangle 10" width="318" height="110" rx="20" transform="translate(466 1315)" fill="#3b5998"/>
    <path id="Rectangle_11" data-name="Rectangle 11" d="M0,0H318a0,0,0,0,1,0,0V10a20,20,0,0,1-20,20H20A20,20,0,0,1,0,10V0A0,0,0,0,1,0,0Z" transform="translate(466 1395)" fill="#8b9dc3"/>
    <path id="Path_140" data-name="Path 140" d="M21.055-12.471h8.037L31.6-20.1l2.467,7.626H42.1l-6.5,4.71L38.064-.1,31.6-4.808,25.092-.1l2.467-7.664Z" transform="translate(532 1420.128)" fill="#fff"/>
    <path id="Path_141" data-name="Path 141" d="M21.055-12.471h8.037L31.6-20.1l2.467,7.626H42.1l-6.5,4.71L38.064-.1,31.6-4.808,25.092-.1l2.467-7.664Z" transform="translate(555.471 1420.128)" fill="#fff"/>
    <path id="Path_142" data-name="Path 142" d="M21.055-12.471h8.037L31.6-20.1l2.467,7.626H42.1l-6.5,4.71L38.064-.1,31.6-4.808,25.092-.1l2.467-7.664Z" transform="translate(578.942 1420.128)" fill="#fff"/>
    <path id="Path_143" data-name="Path 143" d="M21.055-12.471h8.037L31.6-20.1l2.467,7.626H42.1l-6.5,4.71L38.064-.1,31.6-4.808,25.092-.1l2.467-7.664Z" transform="translate(602.412 1420.128)" fill="#fff"/>
    <path id="Path_144" data-name="Path 144" d="M21.055-12.471h8.037L31.6-20.1l2.467,7.626H42.1l-6.5,4.71L38.064-.1,31.6-4.808,25.092-.1l2.467-7.664Z" transform="translate(625.883 1420.128)" fill="#fff"/>
    <path id="Path_138" data-name="Path 138" d="M469.693,234.816l-1.611.5,1.016,1.346a3.5,3.5,0,0,1-2.222,5.571l-1.611.269.753,1.449a3.5,3.5,0,0,1-2.892,5.111l-20.258.009a7.524,7.524,0,0,1-4.306-1.576,4.753,4.753,0,0,0-1.124-.737l-.439-.2V227.839l2.112-1.806,7.13-13.21a5.874,5.874,0,0,0,.835-3.5l-.564-7.414a3.277,3.277,0,0,1,1.62-.429c3.078,0,5.716,4.918,5.716,8.943a11.08,11.08,0,0,1-.127,1.669l-1.238,8.028h15.457a3.811,3.811,0,0,1,2.675,1.129,3.386,3.386,0,0,1,1.016,2.413,3.489,3.489,0,0,1-1.4,2.773l-1.437,1.09,1.569.889a3.513,3.513,0,0,1-.677,6.413Z" transform="translate(295.387 1132.505)" fill="#fff"/>
    <path id="Path_139" data-name="Path 139" d="M301.668,379.983a.077.077,0,0,0-.077.067v27.539a.076.076,0,0,0,.077.066h15.861a.076.076,0,0,0,.077-.066V380.047a.077.077,0,0,0-.077-.067Z" transform="translate(414.598 976.677)" fill="#dfe3ee"/>
    <path id="Path_137" data-name="Path 137" d="M348.159,215.057a5.9,5.9,0,0,0-1.778-4.208,5.834,5.834,0,0,0,1.252-3.586,5.743,5.743,0,0,0-1.711-4.1,6.2,6.2,0,0,0-4.361-1.832H328.882l.817-5.292a13.548,13.548,0,0,0,.154-2.032c0-5.233-3.534-11.319-8.09-11.319a5.655,5.655,0,0,0-3.615,1.31l-.47.391.662,8.7a3.507,3.507,0,0,1-.508,2.107l-6.968,12.915-.26.224a2.444,2.444,0,0,0-2.413-2.086H294.68a2.443,2.443,0,0,0-2.44,2.44v25.484a2.443,2.443,0,0,0,2.44,2.44h13.511a2.443,2.443,0,0,0,2.436-2.44v-1.284l.019.015a9.863,9.863,0,0,0,5.843,2.142h0l20.3-.008h.065a5.881,5.881,0,0,0,5.4-7.258,5.887,5.887,0,0,0,3.1-7.695A5.861,5.861,0,0,0,348.159,215.057Zm-39.9,19.115a.071.071,0,0,1-.066.066H294.68a.07.07,0,0,1-.065-.066V208.688a.07.07,0,0,1,.065-.066h13.511a.071.071,0,0,1,.066.066Zm35.063-15.759-1.611.5,1.016,1.346a3.5,3.5,0,0,1-2.222,5.571l-1.611.269.753,1.449a3.5,3.5,0,0,1-2.892,5.111l-20.258.009a7.524,7.524,0,0,1-4.306-1.576,4.754,4.754,0,0,0-1.124-.737l-.439-.2V211.436l2.112-1.806,7.13-13.21a5.875,5.875,0,0,0,.835-3.5l-.564-7.414a3.277,3.277,0,0,1,1.619-.429c3.078,0,5.716,4.918,5.716,8.943a11.072,11.072,0,0,1-.127,1.669l-1.238,8.028h15.457a3.811,3.811,0,0,1,2.675,1.129,3.386,3.386,0,0,1,1.016,2.413,3.489,3.489,0,0,1-1.4,2.773l-1.437,1.09,1.569.889a3.513,3.513,0,0,1-.677,6.413Z" transform="translate(421.76 1148.908)" fill="#8b9dc3"/>
    <text id="Read_Our_Reviews_On" data-name="Read Our Reviews On" transform="translate(507 1340)" fill="#fff" font-size="20" font-family="Roboto-Medium, Roboto" font-weight="500"><tspan x="0" y="0">Read Our Reviews On</tspan></text>
    <path id="Path_145" data-name="Path 145" d="M19.556-31.1a7.793,7.793,0,0,0-2.856-.586q-3.711,0-3.711,4.028V-25H18.7v5.688H12.988V0H5.3V-19.312H1.1V-25H5.3v-3.1a9,9,0,0,1,2.783-6.885A10.615,10.615,0,0,1,15.649-37.6a13.291,13.291,0,0,1,3.906.488ZM43.213,0h-7.3V-3.589h-.1A8.148,8.148,0,0,1,28.369.61a7.789,7.789,0,0,1-5.725-2.063,7.392,7.392,0,0,1-2.087-5.505q0-7.275,8.618-8.4l6.787-.9q0-4.1-4.443-4.1a15.167,15.167,0,0,0-8.5,2.661v-5.811a19.114,19.114,0,0,1,4.407-1.465,23.165,23.165,0,0,1,5.09-.635q10.693,0,10.693,10.669ZM35.962-10.156v-1.685l-4.541.586q-3.76.488-3.76,3.394A2.8,2.8,0,0,0,28.577-5.7a3.518,3.518,0,0,0,2.478.842,4.567,4.567,0,0,0,3.54-1.5A5.423,5.423,0,0,0,35.962-10.156ZM68.262-.9Q65.649.61,60.718.61a12.758,12.758,0,0,1-9.326-3.491,12.058,12.058,0,0,1-3.564-9.009q0-6.372,3.821-10.046T61.865-25.61q4.419,0,6.4,1.172V-17.9a8.8,8.8,0,0,0-5.4-1.807A7.109,7.109,0,0,0,57.6-17.761,7.242,7.242,0,0,0,55.664-12.4,7.124,7.124,0,0,0,57.52-7.19a6.819,6.819,0,0,0,5.1,1.892A10.183,10.183,0,0,0,68.262-7.1Zm27.515-9.4H79.468q.391,5.444,6.86,5.444a13.394,13.394,0,0,0,7.251-1.953v5.566A19.049,19.049,0,0,1,84.57.61q-6.055,0-9.4-3.357t-3.345-9.363q0-6.226,3.613-9.863a12.038,12.038,0,0,1,8.887-3.638q5.469,0,8.459,3.247t2.991,8.813Zm-7.153-4.736q0-5.371-4.346-5.371a4.149,4.149,0,0,0-3.21,1.538,6.981,6.981,0,0,0-1.648,3.833ZM108.179-2.905h-.1V0h-7.715V-37.012h7.715V-21.24h.1a9.154,9.154,0,0,1,8.13-4.37,8.921,8.921,0,0,1,7.446,3.32q2.612,3.32,2.612,9.082,0,6.25-3.052,10.034A9.941,9.941,0,0,1,115.161.61,7.877,7.877,0,0,1,108.179-2.905Zm-.22-10.547v2.563a5.852,5.852,0,0,0,1.392,4A4.527,4.527,0,0,0,112.915-5.3,4.73,4.73,0,0,0,117-7.336a9.843,9.843,0,0,0,1.453-5.774,7.831,7.831,0,0,0-1.331-4.846,4.49,4.49,0,0,0-3.8-1.746,4.9,4.9,0,0,0-3.845,1.733A6.584,6.584,0,0,0,107.959-13.452ZM143.286.61q-6.25,0-9.827-3.5T129.883-12.4q0-6.2,3.711-9.7t10.034-3.5q6.226,0,9.766,3.5a12.453,12.453,0,0,1,3.54,9.265q0,6.226-3.65,9.839T143.286.61Zm.2-20.312a5.146,5.146,0,0,0-4.248,1.88A8.29,8.29,0,0,0,137.72-12.5q0,7.2,5.811,7.2,5.542,0,5.542-7.4Q149.072-19.7,143.481-19.7ZM173.853.61q-6.25,0-9.827-3.5T160.449-12.4q0-6.2,3.711-9.7t10.034-3.5q6.226,0,9.766,3.5a12.453,12.453,0,0,1,3.54,9.265q0,6.226-3.65,9.839T173.853.61Zm.2-20.312a5.146,5.146,0,0,0-4.248,1.88,8.29,8.29,0,0,0-1.514,5.322q0,7.2,5.811,7.2,5.542,0,5.542-7.4Q179.639-19.7,174.048-19.7ZM217.554,0H208.3l-7.983-12.4h-.1V0H192.5V-37.012h7.715v23.56h.1L207.764-25h9.155l-8.96,11.743Z" transform="translate(477 1385)" fill="#fff"/>
    <text id="_" data-name="®" transform="translate(698 1385)" fill="#fff" font-size="10" font-family="Roboto-Medium, Roboto" font-weight="500"><tspan x="0" y="0">®</tspan></text>
  </g>
</svg>
