<svg xmlns="http://www.w3.org/2000/svg" width="253.892" height="119.012" viewBox="0 0 253.892 119.012">
  <g id="Group_34" data-name="Group 34" transform="translate(-846 -315.988)">
    <g id="Group_31" data-name="Group 31" transform="translate(0 -57.012)">
      <text id="G" transform="translate(846 444)" fill="#3273f1" font-size="74" font-family="ProductSans-Bold, Product Sans" font-weight="700"><tspan x="0" y="0">G</tspan></text>
      <text id="o" transform="translate(906.981 445)" fill="#e73124" font-size="75" font-family="ProductSans-Bold, Product Sans" font-weight="700"><tspan x="0" y="0">o</tspan></text>
      <text id="o-2" data-name="o" transform="translate(950.175 445)" fill="#feb204" font-size="75" font-family="ProductSans-Bold, Product Sans" font-weight="700"><tspan x="0" y="0">o</tspan></text>
      <text id="g-2" data-name="g" transform="translate(993.37 446)" fill="#3074f0" font-size="76" font-family="ProductSans-Bold, Product Sans" font-weight="700"><tspan x="0" y="0">g</tspan></text>
      <text id="l" transform="translate(1039.106 442)" fill="#249b41" font-size="72" font-family="ProductSans-Bold, Product Sans" font-weight="700"><tspan x="0" y="0">l</tspan></text>
      <text id="e" transform="translate(1056.892 447)" fill="#e63124" font-size="77" font-family="ProductSans-Bold, Product Sans" font-weight="700"><tspan x="0" y="0">e</tspan></text>
    </g>
    <g id="Group_33" data-name="Group 33" transform="translate(0 4)">
      <text id="Reviews" transform="translate(857 423)" fill="#fff" font-size="30" font-family="ProductSans-Bold, Product Sans" font-weight="700"><tspan x="0" y="0">Reviews</tspan></text>
      <g id="Group_32" data-name="Group 32" transform="translate(-1 -8)">
        <path id="Path_119" data-name="Path 119" d="M1037.892,333l2.5,5,4.636,1.093-3.307,4.436.759,5.967-4.585-2.406-4.849,2.406.759-6.154-4.039-4.249,5.232-.875Z" transform="translate(-52 82.221)" fill="#fcb002"/>
        <path id="Path_119-2" data-name="Path 119" d="M1037.892,333l2.5,5,4.636,1.093-3.307,4.436.759,5.967-4.585-2.406-4.849,2.406.759-6.154-4.039-4.249,5.232-.875Z" transform="translate(-31.647 82.221)" fill="#fcb002"/>
        <path id="Path_119-3" data-name="Path 119" d="M1037.892,333l2.5,5,4.636,1.093-3.307,4.436.759,5.967-4.585-2.406-4.849,2.406.759-6.154-4.039-4.249,5.232-.875Z" transform="translate(-11.295 82.221)" fill="#fcb002"/>
        <path id="Path_119-4" data-name="Path 119" d="M1037.892,333l2.5,5,4.636,1.093-3.307,4.436.759,5.967-4.585-2.406-4.849,2.406.759-6.154-4.039-4.249,5.232-.875Z" transform="translate(9.058 82.221)" fill="#fcb002"/>
        <path id="Path_119-5" data-name="Path 119" d="M1037.892,333l2.5,5,4.636,1.093-3.307,4.436.759,5.967-4.585-2.406-4.849,2.406.759-6.154-4.039-4.249,5.232-.875Z" transform="translate(29.41 82.221)" fill="#fcb002"/>
      </g>
    </g>
  </g>
</svg>
