<svg xmlns="http://www.w3.org/2000/svg" width="238.825" height="104.9" viewBox="0 0 238.825 104.9">
  <g id="Group_59" data-name="Group 59" transform="translate(-1050.775 -1111.1)">
    <path id="Path_151" data-name="Path 151" d="M30.9-29.475H57.225A17.6,17.6,0,0,1,57.6-27.3a21.806,21.806,0,0,1,.15,2.55A29.747,29.747,0,0,1,56.175-15a22.589,22.589,0,0,1-4.95,8.175A24.841,24.841,0,0,1,42.6-.9,29.536,29.536,0,0,1,31.125,1.2,29.038,29.038,0,0,1,20.1-.9a27.448,27.448,0,0,1-9-5.85,28.072,28.072,0,0,1-6.075-8.888A27.642,27.642,0,0,1,2.775-26.85a27.642,27.642,0,0,1,2.25-11.213A28.072,28.072,0,0,1,11.1-46.95a27.448,27.448,0,0,1,9-5.85,29.038,29.038,0,0,1,11.025-2.1,28.8,28.8,0,0,1,11.663,2.25A26.117,26.117,0,0,1,51.6-46.425L44.625-39.6a18.609,18.609,0,0,0-5.85-4.238A18.6,18.6,0,0,0,31.05-45.3a18.7,18.7,0,0,0-6.975,1.313A17.486,17.486,0,0,0,18.3-40.275a17.7,17.7,0,0,0-3.938,5.813A19.137,19.137,0,0,0,12.9-26.85a19.137,19.137,0,0,0,1.462,7.612,17.413,17.413,0,0,0,3.975,5.813A17.911,17.911,0,0,0,24.15-9.713,18.9,18.9,0,0,0,31.2-8.4a18.787,18.787,0,0,0,7.238-1.237A16.961,16.961,0,0,0,43.5-12.825a12.157,12.157,0,0,0,2.587-3.413,19.35,19.35,0,0,0,1.688-4.613H30.9Z" transform="translate(1048 1166)" fill="#3273f1"/>
    <path id="Path_150" data-name="Path 150" d="M21.6-37.95a20.446,20.446,0,0,1,7.838,1.463,18.553,18.553,0,0,1,6.15,4.05,18.463,18.463,0,0,1,4.05,6.188A20.73,20.73,0,0,1,41.1-18.375,20.73,20.73,0,0,1,39.638-10.5a18.463,18.463,0,0,1-4.05,6.188,18.553,18.553,0,0,1-6.15,4.05A20.446,20.446,0,0,1,21.6,1.2,20.446,20.446,0,0,1,13.763-.263a18.553,18.553,0,0,1-6.15-4.05A18.463,18.463,0,0,1,3.563-10.5,20.73,20.73,0,0,1,2.1-18.375,20.73,20.73,0,0,1,3.563-26.25a18.463,18.463,0,0,1,4.05-6.188,18.553,18.553,0,0,1,6.15-4.05A20.446,20.446,0,0,1,21.6-37.95Zm0,30.075a9.62,9.62,0,0,0,3.638-.713A9.276,9.276,0,0,0,28.35-10.65a9.776,9.776,0,0,0,2.137-3.3,11.734,11.734,0,0,0,.788-4.425,11.734,11.734,0,0,0-.788-4.425,9.776,9.776,0,0,0-2.137-3.3,9.276,9.276,0,0,0-3.113-2.062,9.62,9.62,0,0,0-3.638-.712,9.531,9.531,0,0,0-3.675.712A9.376,9.376,0,0,0,14.85-26.1a9.776,9.776,0,0,0-2.138,3.3,11.734,11.734,0,0,0-.787,4.425,11.734,11.734,0,0,0,.787,4.425,9.776,9.776,0,0,0,2.138,3.3,9.376,9.376,0,0,0,3.075,2.063A9.531,9.531,0,0,0,21.6-7.875Z" transform="translate(1107.981 1166)" fill="#e73124"/>
    <path id="Path_149" data-name="Path 149" d="M21.6-37.95a20.446,20.446,0,0,1,7.838,1.463,18.553,18.553,0,0,1,6.15,4.05,18.463,18.463,0,0,1,4.05,6.188A20.73,20.73,0,0,1,41.1-18.375,20.73,20.73,0,0,1,39.638-10.5a18.463,18.463,0,0,1-4.05,6.188,18.553,18.553,0,0,1-6.15,4.05A20.446,20.446,0,0,1,21.6,1.2,20.446,20.446,0,0,1,13.763-.263a18.553,18.553,0,0,1-6.15-4.05A18.463,18.463,0,0,1,3.563-10.5,20.73,20.73,0,0,1,2.1-18.375,20.73,20.73,0,0,1,3.563-26.25a18.463,18.463,0,0,1,4.05-6.188,18.553,18.553,0,0,1,6.15-4.05A20.446,20.446,0,0,1,21.6-37.95Zm0,30.075a9.62,9.62,0,0,0,3.638-.713A9.276,9.276,0,0,0,28.35-10.65a9.776,9.776,0,0,0,2.137-3.3,11.734,11.734,0,0,0,.788-4.425,11.734,11.734,0,0,0-.788-4.425,9.776,9.776,0,0,0-2.137-3.3,9.276,9.276,0,0,0-3.113-2.062,9.62,9.62,0,0,0-3.638-.712,9.531,9.531,0,0,0-3.675.712A9.376,9.376,0,0,0,14.85-26.1a9.776,9.776,0,0,0-2.138,3.3,11.734,11.734,0,0,0-.787,4.425,11.734,11.734,0,0,0,.787,4.425,9.776,9.776,0,0,0,2.138,3.3,9.376,9.376,0,0,0,3.075,2.063A9.531,9.531,0,0,0,21.6-7.875Z" transform="translate(1150.176 1166)" fill="#feb204"/>
    <path id="Path_147" data-name="Path 147" d="M21.15,17.4a21.9,21.9,0,0,1-6.937-1.013,19.715,19.715,0,0,1-5.288-2.625A17.652,17.652,0,0,1,5.175,10.2,13.9,13.9,0,0,1,3,6.3l9.375-3.75a8.922,8.922,0,0,0,3.45,4.538A9.341,9.341,0,0,0,21.15,8.7,9.364,9.364,0,0,0,28.5,5.682q2.7-3.018,2.7-8.307v-2.55h-.6a12.03,12.03,0,0,1-4.538,3.788A14.844,14.844,0,0,1,19.425,0a16.1,16.1,0,0,1-6.413-1.337A16.814,16.814,0,0,1,7.5-5.161,19.722,19.722,0,0,1,3.6-11.14a19.56,19.56,0,0,1-1.5-7.8,19.831,19.831,0,0,1,1.5-7.836,19.607,19.607,0,0,1,3.9-6.016,16.814,16.814,0,0,1,5.512-3.824,16.1,16.1,0,0,1,6.413-1.337,14.844,14.844,0,0,1,6.638,1.388A12.03,12.03,0,0,1,30.6-32.775h.6V-36.75h9.375V-2.625A23.19,23.19,0,0,1,39.15,5.738a18.064,18.064,0,0,1-3.975,6.3,17.253,17.253,0,0,1-6.112,3.975A21.637,21.637,0,0,1,21.15,17.4Zm.375-26.25a10.053,10.053,0,0,0,3.563-.663A9.1,9.1,0,0,0,28.2-11.464a9.716,9.716,0,0,0,2.175-3.166,10.619,10.619,0,0,0,.825-4.308,10.881,10.881,0,0,0-.825-4.344,9.625,9.625,0,0,0-2.175-3.2,9.1,9.1,0,0,0-3.112-1.951,10.053,10.053,0,0,0-3.563-.663A9.753,9.753,0,0,0,18-28.437a8.914,8.914,0,0,0-3.075,1.988,10.154,10.154,0,0,0-2.175,3.2,10.616,10.616,0,0,0-.825,4.307,10.619,10.619,0,0,0,.825,4.308,9.716,9.716,0,0,0,2.175,3.166A9.184,9.184,0,0,0,18-9.513,9.753,9.753,0,0,0,21.525-8.85Z" transform="translate(1192 1166)" fill="#3074f0"/>
    <path id="Path_146" data-name="Path 146" d="M39-8.85a20.59,20.59,0,0,1-6.863,7.275A19.072,19.072,0,0,1,21.6,1.2,20.244,20.244,0,0,1,13.838-.263,18.679,18.679,0,0,1,7.65-4.35a18.679,18.679,0,0,1-4.088-6.188A20.446,20.446,0,0,1,2.1-18.375a20.106,20.106,0,0,1,1.425-7.538A19.217,19.217,0,0,1,7.5-32.138a19.218,19.218,0,0,1,6.038-4.237,18.462,18.462,0,0,1,7.688-1.575A20.016,20.016,0,0,1,29.1-36.488a16.065,16.065,0,0,1,5.775,4.05A17.428,17.428,0,0,1,38.4-26.325a23.6,23.6,0,0,1,1.2,7.65v.9a5.049,5.049,0,0,0-.075.825,4.214,4.214,0,0,0-.075.825H11.775a10.335,10.335,0,0,0,1.237,3.862,9.37,9.37,0,0,0,2.325,2.7,9.039,9.039,0,0,0,3.037,1.575A11.85,11.85,0,0,0,21.75-7.5a9.567,9.567,0,0,0,5.587-1.538A11.219,11.219,0,0,0,30.825-12.9ZM30.075-23.1a6.362,6.362,0,0,0-.637-2.175,7.657,7.657,0,0,0-1.65-2.25,8.637,8.637,0,0,0-2.7-1.725,9.979,9.979,0,0,0-3.862-.675,9,9,0,0,0-5.55,1.8A9.5,9.5,0,0,0,12.3-23.1Z" transform="translate(1250 1166)" fill="#e63124"/>
    <g id="Group_56" data-name="Group 56" transform="translate(296)">
      <text id="Reviews" transform="translate(767 1208)" fill="#fff" font-size="30" font-family="ProductSans-Bold, Product Sans" font-weight="700"><tspan x="0" y="0">Reviews</tspan></text>
      <g id="Group_55" data-name="Group 55">
        <path id="Path_119" data-name="Path 119" d="M1037.892,333l2.5,5,4.636,1.093-3.307,4.436.759,5.967-4.585-2.406-4.849,2.406.759-6.154-4.039-4.249,5.232-.875Z" transform="translate(-143 859.221)" fill="#fcb002"/>
        <path id="Path_119-2" data-name="Path 119" d="M1037.892,333l2.5,5,4.636,1.093-3.307,4.436.759,5.967-4.585-2.406-4.849,2.406.759-6.154-4.039-4.249,5.232-.875Z" transform="translate(-122.647 859.221)" fill="#fcb002"/>
        <path id="Path_119-3" data-name="Path 119" d="M1037.892,333l2.5,5,4.636,1.093-3.307,4.436.759,5.967-4.585-2.406-4.849,2.406.759-6.154-4.039-4.249,5.232-.875Z" transform="translate(-102.295 859.221)" fill="#fcb002"/>
        <path id="Path_119-4" data-name="Path 119" d="M1037.892,333l2.5,5,4.636,1.093-3.307,4.436.759,5.967-4.585-2.406-4.849,2.406.759-6.154-4.039-4.249,5.232-.875Z" transform="translate(-81.942 859.221)" fill="#fcb002"/>
        <path id="Path_119-5" data-name="Path 119" d="M1037.892,333l2.5,5,4.636,1.093-3.307,4.436.759,5.967-4.585-2.406-4.849,2.406.759-6.154-4.039-4.249,5.232-.875Z" transform="translate(-61.59 859.221)" fill="#fcb002"/>
      </g>
    </g>
    <path id="Path_148" data-name="Path 148" d="M4.2,0V-53.7h9.825V0Z" transform="translate(1235 1166)" fill="#00b760"/>
  </g>
</svg>
