<svg xmlns="http://www.w3.org/2000/svg" width="244" height="122" viewBox="0 0 244 122">
  <g id="Group_58" data-name="Group 58" transform="translate(-1048 -1094)">
    <text id="G" transform="translate(1048 1166)" fill="#3273f1" font-size="75" font-family="ProductSans-Bold, Product Sans" font-weight="700"><tspan x="0" y="0">G</tspan></text>
    <text id="o" transform="translate(1107.981 1166)" fill="#e73124" font-size="75" font-family="ProductSans-Bold, Product Sans" font-weight="700"><tspan x="0" y="0">o</tspan></text>
    <text id="o-2" data-name="o" transform="translate(1150.176 1166)" fill="#feb204" font-size="75" font-family="ProductSans-Bold, Product Sans" font-weight="700"><tspan x="0" y="0">o</tspan></text>
    <text id="g-2" data-name="g" transform="translate(1192 1166)" fill="#3074f0" font-size="75" font-family="ProductSans-Bold, Product Sans" font-weight="700"><tspan x="0" y="0">g</tspan></text>
    <text id="e" transform="translate(1250 1166)" fill="#e63124" font-size="75" font-family="ProductSans-Bold, Product Sans" font-weight="700"><tspan x="0" y="0">e</tspan></text>
    <g id="Group_56" data-name="Group 56" transform="translate(296)">
      <text id="Reviews" transform="translate(767 1208)" fill="#fff" font-size="30" font-family="ProductSans-Bold, Product Sans" font-weight="700"><tspan x="0" y="0">Reviews</tspan></text>
      <g id="Group_55" data-name="Group 55">
        <path id="Path_119" data-name="Path 119" d="M1037.892,333l2.5,5,4.636,1.093-3.307,4.436.759,5.967-4.585-2.406-4.849,2.406.759-6.154-4.039-4.249,5.232-.875Z" transform="translate(-143 859.221)" fill="#fcb002"/>
        <path id="Path_119-2" data-name="Path 119" d="M1037.892,333l2.5,5,4.636,1.093-3.307,4.436.759,5.967-4.585-2.406-4.849,2.406.759-6.154-4.039-4.249,5.232-.875Z" transform="translate(-122.647 859.221)" fill="#fcb002"/>
        <path id="Path_119-3" data-name="Path 119" d="M1037.892,333l2.5,5,4.636,1.093-3.307,4.436.759,5.967-4.585-2.406-4.849,2.406.759-6.154-4.039-4.249,5.232-.875Z" transform="translate(-102.295 859.221)" fill="#fcb002"/>
        <path id="Path_119-4" data-name="Path 119" d="M1037.892,333l2.5,5,4.636,1.093-3.307,4.436.759,5.967-4.585-2.406-4.849,2.406.759-6.154-4.039-4.249,5.232-.875Z" transform="translate(-81.942 859.221)" fill="#fcb002"/>
        <path id="Path_119-5" data-name="Path 119" d="M1037.892,333l2.5,5,4.636,1.093-3.307,4.436.759,5.967-4.585-2.406-4.849,2.406.759-6.154-4.039-4.249,5.232-.875Z" transform="translate(-61.59 859.221)" fill="#fcb002"/>
      </g>
    </g>
    <text id="l" transform="translate(1235 1166)" fill="#00b760" font-size="75" font-family="ProductSans-Bold, Product Sans" font-weight="700"><tspan x="0" y="0">l</tspan></text>
  </g>
</svg>
