<svg xmlns="http://www.w3.org/2000/svg" xmlns:xlink="http://www.w3.org/1999/xlink" width="360" height="360" viewBox="0 0 360 360">
  <defs>
    <clipPath id="clip-path">
      <path id="path1344" d="M2003.863-1497.528h-300v146.373h300Z"/>
    </clipPath>
  </defs>
  <g id="Group_46" data-name="Group 46" transform="translate(-1521 -1460)">
    <circle id="Ellipse_12" data-name="Ellipse 12" cx="180" cy="180" r="180" transform="translate(1521 1460)" fill="#bf2519"/>
    <g id="layer1" transform="translate(991.844 1282.74)">
      <g id="g6545" transform="translate(-960.058 -2371.027)">
        <g id="g1338" transform="translate(-184.727 4181.684)">
          <g id="g1340" clip-path="url(#clip-path)">
            <g id="g1346" transform="translate(1998.587 -1415.696)">
              <path id="path1348" d="M0,0C-1.916-1.448-2.232-1.67-13.749-5.463-3.773-7.916-3.345-8.177-1.576-9.34A13.355,13.355,0,0,0,4.256-21.433l-.039-.532c-.813-7.828-10.9-22.6-17.685-25.911a13.377,13.377,0,0,0-13.379.8c-1.847,1.222-2.094,1.389-9.675,11.739-.739-12.093-2.163-33.418-2.512-35.413l-.074-.458-.113-.443a13.374,13.374,0,0,0-9.837-9.424c-8.123-2.025-29.606,4.03-35.369,9.97a13.437,13.437,0,0,0-3.517,12.744l.236.887.4.823c.552,1.138,2,3.547,14.473,23.108l4.6,7.241c-11.162-4.566-11.606-4.581-13.916-4.6a13.14,13.14,0,0,0-11.463,6.32l-.049.079a23.708,23.708,0,0,0-2.744,8.35c-3.6-4.847-9.01-8.734-17.217-10.345a28.131,28.131,0,0,0-16.419,1.616,16.179,16.179,0,0,0-16.6-.266,13.64,13.64,0,0,0-3.9,3.291V-28.5l-.517-3.946-.158-.709a14.487,14.487,0,0,0-8.645-9.665l-.039-.02A16.327,16.327,0,0,0-174.5-41.6c-4.813,2.842-7.281,7.562-7.281,14.015v13.542a26.663,26.663,0,0,0-6.34-6.887c-6.759-5.123-15.823-6.852-26.2-4.99a28.161,28.161,0,0,0-15.029,7.522c-.064-.123-.128-.276-.192-.4a14.916,14.916,0,0,0-9.517-7.222c-7.025-1.926-15.941.463-19.621,13.025,0,0-.6,2.03-1.414,4.8-1.611-2.956-5.788-11.029-5.961-11.271a15,15,0,0,0-18.039-5.5,15.5,15.5,0,0,0-10.281,14.916,20.2,20.2,0,0,0,1.143,6.581l.192.547,17.251,35.138c-6.222,1.64-10.655,6.281-11.374,12.645a15.076,15.076,0,0,0-.113,1.818A14.549,14.549,0,0,0-282.5,57.443c4.68,4.32,11.951,5.749,20.488,4,9.276-1.823,14.611-7.414,18.35-19.271l5.69-17.877a32.146,32.146,0,0,0,8.419,15.6c4.6,4.547,13.015,9.576,26.95,7.695,10.355-1.448,17.522-6.084,21.394-11.532l.251,1.315a14.78,14.78,0,0,0,8.133,9.177,15.8,15.8,0,0,0,13.364-.089,14.2,14.2,0,0,0,5.6-4.419v5.635c0,9.315,5.389,13.276,8.6,14.813a16.1,16.1,0,0,0,13.581.379,14.717,14.717,0,0,0,8.394-9.325l.187-.635.562-3.842v-1.65a29.61,29.61,0,0,0,16.6-3.01,27.789,27.789,0,0,0,6.044-4.241h3.783a14.807,14.807,0,0,0,6.916,1.759,14.761,14.761,0,0,0,6.916-1.759h10.97c7.266,4.089,17.887,7.187,23.571,6.212a13.292,13.292,0,0,0,10.384-8.438l.084-.222c.69-2.01.8-2.384.852-13.739,6.227,10.059,6.552,10.325,8.3,11.7a13.244,13.244,0,0,0,13.261,1.739C-7.542,34.478,3.65,20.251,4.773,12.443A15.075,15.075,0,0,0,4.921,10.4,13.179,13.179,0,0,0,0,0ZM-113.669-26.512a.059.059,0,0,0,.039.01.042.042,0,0,0,.034.01Zm98.812,63.93h-.01c-.015,0-.02.015-.034.02l.044-.02" fill="#fff"/>
            </g>
            <g id="g1350" transform="translate(1998.587 -1415.696)">
              <path id="path1352" d="M0,0C-1.916-1.448-2.232-1.67-13.749-5.463-3.773-7.916-3.345-8.177-1.576-9.34A13.355,13.355,0,0,0,4.256-21.433l-.039-.532c-.813-7.828-10.9-22.6-17.685-25.911a13.377,13.377,0,0,0-13.379.8c-1.847,1.222-2.094,1.389-9.675,11.739-.739-12.093-2.163-33.418-2.512-35.413l-.074-.458-.113-.443a13.374,13.374,0,0,0-9.837-9.424c-8.123-2.025-29.606,4.03-35.369,9.97a13.437,13.437,0,0,0-3.517,12.744l.236.887.4.823c.552,1.138,2,3.547,14.473,23.108l4.6,7.241c-11.162-4.566-11.606-4.581-13.916-4.6a13.14,13.14,0,0,0-11.463,6.32l-.049.079a23.708,23.708,0,0,0-2.744,8.35c-3.6-4.847-9.01-8.734-17.217-10.345a28.131,28.131,0,0,0-16.419,1.616,16.179,16.179,0,0,0-16.6-.266,13.64,13.64,0,0,0-3.9,3.291V-28.5l-.517-3.946-.158-.709a14.487,14.487,0,0,0-8.645-9.665l-.039-.02A16.327,16.327,0,0,0-174.5-41.6c-4.813,2.842-7.281,7.562-7.281,14.015v13.542a26.663,26.663,0,0,0-6.34-6.887c-6.759-5.123-15.823-6.852-26.2-4.99a28.161,28.161,0,0,0-15.029,7.522c-.064-.123-.128-.276-.192-.4a14.916,14.916,0,0,0-9.517-7.222c-7.025-1.926-15.941.463-19.621,13.025,0,0-.6,2.03-1.414,4.8-1.611-2.956-5.788-11.029-5.961-11.271a15,15,0,0,0-18.039-5.5,15.5,15.5,0,0,0-10.281,14.916,20.2,20.2,0,0,0,1.143,6.581l.192.547,17.251,35.138c-6.222,1.64-10.655,6.281-11.374,12.645a15.076,15.076,0,0,0-.113,1.818A14.549,14.549,0,0,0-282.5,57.443c4.68,4.32,11.951,5.749,20.488,4,9.276-1.823,14.611-7.414,18.35-19.271l5.69-17.877a32.146,32.146,0,0,0,8.419,15.6c4.6,4.547,13.015,9.576,26.95,7.695,10.355-1.448,17.522-6.084,21.394-11.532l.251,1.315a14.78,14.78,0,0,0,8.133,9.177,15.8,15.8,0,0,0,13.364-.089,14.2,14.2,0,0,0,5.6-4.419v5.635c0,9.315,5.389,13.276,8.6,14.813a16.1,16.1,0,0,0,13.581.379,14.717,14.717,0,0,0,8.394-9.325l.187-.635.562-3.842v-1.65a29.61,29.61,0,0,0,16.6-3.01,27.789,27.789,0,0,0,6.044-4.241h3.783a14.807,14.807,0,0,0,6.916,1.759,14.761,14.761,0,0,0,6.916-1.759h10.97c7.266,4.089,17.887,7.187,23.571,6.212a13.292,13.292,0,0,0,10.384-8.438l.084-.222c.69-2.01.8-2.384.852-13.739,6.227,10.059,6.552,10.325,8.3,11.7a13.244,13.244,0,0,0,13.261,1.739C-7.542,34.478,3.65,20.251,4.773,12.443A15.075,15.075,0,0,0,4.921,10.4,13.179,13.179,0,0,0,0,0Z" fill="none" stroke="#bdbcbc" stroke-linecap="round" stroke-linejoin="round" stroke-width="0.714"/>
              <g id="g1354" transform="translate(-113.669 -26.512)">
                <path id="path1356" d="M0,0A.066.066,0,0,0,.039.01.053.053,0,0,0,.079.02Z" fill="none" stroke="#bdbcbc" stroke-linecap="round" stroke-linejoin="round" stroke-width="0.714"/>
                <g id="g1358" transform="translate(98.817 63.93)">
                  <path id="path1360" d="M0,0H-.015c-.01,0-.015.015-.03.02Z" fill="none" stroke="#bdbcbc" stroke-linecap="round" stroke-linejoin="round" stroke-width="0.714"/>
                </g>
              </g>
            </g>
          </g>
        </g>
        <g id="g1362" transform="translate(1726.728 2750.215)">
          <path id="path1364" d="M0,0C-1.778,2.847-2.522,11.793-1.906,17.739A13.525,13.525,0,0,0-.818,22.305a3.833,3.833,0,0,0,3.261,2.207c.862.044,1.409-.1,17.8-5.384,0,0,7.286-2.315,7.325-2.33a4.433,4.433,0,0,0,3.153-4.266,4.724,4.724,0,0,0-2.872-4.818l-5.143-2.1C5.084-1.655,4.3-1.931,3.4-1.941A3.8,3.8,0,0,0,0,0" fill="#e9e9e9"/>
        </g>
        <g id="g1366" transform="translate(1766.131 2804.362)">
          <path id="path1368" d="M0,0C.291-.828.32-1.394.365-18.616c0,0,.044-7.611.059-7.695A4.447,4.447,0,0,0-2.65-30.63,4.732,4.732,0,0,0-8.113-29.4s-3.586,4.256-3.6,4.261C-24.054-10.63-24.571-9.97-24.867-9.1a3.423,3.423,0,0,0-.2,1.576,4.121,4.121,0,0,0,1,2.227C-21.207-1.887-7.478,3.163-3.1,2.414A3.86,3.86,0,0,0,0,0" fill="#e9e9e9"/>
        </g>
        <g id="g1370" transform="translate(1793.964 2798.367)">
          <path id="path1372" d="M0,0C4.148-1.65,13.182-13.138,13.813-17.552a3.869,3.869,0,0,0-1.325-3.714c-.685-.522-1.232-.724-17.6-6.1,0,0-7.2-2.374-7.276-2.414a4.439,4.439,0,0,0-5.064,1.6,4.683,4.683,0,0,0-.488,5.6l2.892,4.7C-5.32-2.079-4.586-.966-3.887-.414A3.778,3.778,0,0,0,0,0" fill="#e9e9e9"/>
        </g>
        <g id="g1374" transform="translate(1785.515 2757.697)">
          <path id="path1376" d="M0,0C18.621-4.5,19.335-4.739,20.074-5.222a3.839,3.839,0,0,0,1.591-3.591c0-.054,0-.1,0-.153-.483-4.566-8.488-16.463-12.433-18.394a3.888,3.888,0,0,0-3.956.148c-.719.483-1.256,1.172-11.217,14.818,0,0-4.507,6.138-4.562,6.192a4.415,4.415,0,0,0-.049,5.291,4.7,4.7,0,0,0,5.1,2.217s-.084.128-.1.158A56.262,56.262,0,0,1,0,0" fill="#e9e9e9"/>
        </g>
        <g id="g1378" transform="translate(1766.816 2742.323)">
          <path id="path1380" d="M0,0C-.325-7.379-2.537-40.231-2.8-41.748a3.916,3.916,0,0,0-3.01-2.759c-4.744-1.182-22.916,3.916-26.281,7.389a4.006,4.006,0,0,0-1.158,3.749c.527,1.084,23.034,36.5,23.034,36.5,3.33,5.4,6.044,4.557,6.931,4.281S.305,6.291,0,0" fill="#e9e9e9"/>
        </g>
        <g id="g1382" transform="translate(1728.215 2746.49)">
          <path id="path1384" d="M0,0C-1.773,2.842-2.522,11.793-1.906,17.734A13.958,13.958,0,0,0-.818,22.305a3.846,3.846,0,0,0,3.261,2.2c.872.044,1.414-.1,17.808-5.374,0,0,7.286-2.325,7.315-2.34a4.415,4.415,0,0,0,3.158-4.266,4.715,4.715,0,0,0-2.872-4.818S22.714,5.616,22.7,5.616C5.089-1.65,4.3-1.936,3.409-1.946A3.817,3.817,0,0,0,0,0" fill="#bf2519"/>
        </g>
        <g id="g1386" transform="translate(1767.624 2800.628)">
          <path id="path1388" d="M0,0C.286-.828.32-1.394.369-18.616c0,0,.039-7.611.044-7.685A4.421,4.421,0,0,0-2.65-30.625a4.737,4.737,0,0,0-5.458,1.232s-3.6,4.266-3.606,4.266C-24.054-10.63-24.571-9.96-24.872-9.1a3.518,3.518,0,0,0-.2,1.581,4.225,4.225,0,0,0,1,2.236c2.862,3.4,16.586,8.448,20.97,7.7A3.835,3.835,0,0,0,0,0" fill="#bf2519"/>
        </g>
        <g id="g1390" transform="translate(1795.466 2794.633)">
          <path id="path1392" d="M0,0C4.138-1.65,13.162-13.133,13.8-17.552a3.858,3.858,0,0,0-1.32-3.709c-.695-.522-1.222-.724-17.606-6.1,0,0-7.187-2.374-7.281-2.419a4.45,4.45,0,0,0-5.059,1.6,4.706,4.706,0,0,0-.488,5.606l2.892,4.709C-5.34-2.079-4.6-.961-3.9-.414A3.781,3.781,0,0,0,0,0" fill="#bf2519"/>
        </g>
        <g id="g1394" transform="translate(1786.998 2753.973)">
          <path id="path1396" d="M0,0C18.621-4.512,19.34-4.749,20.074-5.231a3.812,3.812,0,0,0,1.6-3.576.842.842,0,0,0,0-.158c-.478-4.571-8.488-16.463-12.433-18.394a3.865,3.865,0,0,0-3.961.153c-.719.468-1.246,1.177-11.217,14.813,0,0-4.5,6.133-4.557,6.192a4.394,4.394,0,0,0-.044,5.286A4.693,4.693,0,0,0-5.448,1.3s-.074.133-.094.158C-4.626,1.113-2.985.709,0,0" fill="#bf2519"/>
        </g>
        <g id="g1398" transform="translate(1768.309 2738.599)">
          <path id="path1400" d="M0,0C-.32-7.379-2.542-40.236-2.8-41.758a3.913,3.913,0,0,0-3-2.754c-4.754-1.177-22.921,3.911-26.285,7.384a3.973,3.973,0,0,0-1.158,3.749c.532,1.089,23.039,36.5,23.039,36.5C-6.882,8.517-4.167,7.68-3.276,7.4S.305,6.291,0,0" fill="#bf2519"/>
        </g>
        <g id="g1402" transform="translate(1537.759 2816.48)">
          <path id="path1404" d="M0,0C2.345,2.172,6.788,2.788,12.187,1.69c5.059-1,8.2-3.261,11.217-12.862L38.443-58.423c.778-2.507.719-4.685-.172-6.3a5.553,5.553,0,0,0-3.635-2.635c-2.68-.734-6.025-.66-8.133,6.542l-7.892,26.8S2.537-64.379,2.527-64.384a5.574,5.574,0,0,0-7.02-2.281c-3.951,1.5-5.266,5.054-3.69,9.63,0,0,19.552,39.788,19.6,39.9a13.991,13.991,0,0,1,.532,1.65s.177,1.079.177,1.118a5.12,5.12,0,0,1-1.468,3.685A4.866,4.866,0,0,1,7.039-9.453S3.99-9.522,3.759-9.522C.626-9.138-1.345-7.34-1.66-4.562A5.109,5.109,0,0,0,0,0" fill="#231f20"/>
        </g>
        <g id="g1406" transform="translate(1614.798 2771.677)">
          <path id="path1408" d="M0,0H-20.936c-.566-.414-.842-1.108-.419-3.2A10.881,10.881,0,0,1-19.965-6.66c.271-.414.552-.837.823-1.261a10.534,10.534,0,0,1,5.965-3.729C-5.818-13.448-.685-9.709.148-3.33.547-.547.286,0,0,0ZM12.867-3.645c-.675-6.828-3.31-12.158-7.63-15.424C.635-22.561-5.877-23.675-13.586-22.3c-9.665,1.675-15.468,8.581-16.8,20-1.635,13.65.611,23.936,6.517,29.753,4.453,4.4,11.039,6.148,19.049,5.064C6.606,30.916,11.744,24.645,11.744,20.68c0-2.916-1.764-5.212-4.355-5.562-1.483-.3-2.734,0-5.5,2.478-3.99,3.478-8.616,4.877-12.714,3.837a9.489,9.489,0,0,1-6.665-5.9s-.493-1.951-.463-1.734c-.335-1.759-.488-3.5.6-4.212l.291-.2H8.025c2.315,0,3.488-.3,4.163-1.03,1.379-1.532,1.271-5.906.68-12.01" fill="#231f20"/>
        </g>
        <g id="g1410" transform="translate(1650.413 2731.924)">
          <path id="path1412" d="M0,0A6.9,6.9,0,0,0-6.192.581C-8.084,1.7-8.872,3.4-8.872,6.483V66.315s.33,2.138.365,2.232A5.481,5.481,0,0,0-5.448,72a6.369,6.369,0,0,0,5.414-.049,6.043,6.043,0,0,0,3.468-5.832V6.177s-.379-2.9-.379-2.951A4.97,4.97,0,0,0,0,0" fill="#231f20"/>
        </g>
        <g id="g1414" transform="translate(1697.762 2792.697)">
          <path id="path1416" d="M0,0C-8.286,0-9.606-7.355-9.867-12.906c-.015-.015-.108-3.251-.108-3.251s.094-2.4.094-2.5C-9.345-28.261-7.36-32.049-2.291-33.1c3.4-.788,6-.4,7.956,1.167,2.931,2.36,4.222,7.355,4.1,15.69C9.685-6.488,7.985,0,0,0ZM.616-43.931a18.451,18.451,0,0,0-14.867,2.911s-.512.414-.709.532l-.409.207-1.251.562-.355-1.4-.3-.507-.1-.315-.034-.094s-.305-.409-.35-.473c-1.31-2.039-4.872-2.975-8.084-1.143-1.571.892-2.473,2.148-2.473,5.9V20.965c0,3.217,1.01,5.217,3.217,6.271a6.8,6.8,0,0,0,5.754.236,5.3,5.3,0,0,0,3.069-3.291l.369-2.517V11.5l-.108-1.635.044-.483.064-.232.606-1.936,1.837,1.222a5.117,5.117,0,0,1,.66.512l.552.365s.64.374.64.374.591.286.591.286C-6.1,12.3.493,12.029,5.8,9.3c6.68-3.488,9.98-9.675,10.744-20.064,1.6-20.763-3.182-30.684-15.926-33.162" fill="#231f20"/>
        </g>
        <g id="g1418" transform="translate(1724.122 2797.293)">
          <path id="path1420" d="M0,0H.685c.557,0,1.079-.03,1.079-.655,0-.562-.478-.621-.906-.621H0ZM-.562-1.778H.906c.961,0,1.409.35,1.409,1.148A1.028,1.028,0,0,1,1.256.453L2.414,2.222H1.808L.714.5H0V2.222H-.562Zm1.3,4.926A2.911,2.911,0,0,0,3.66.182,2.908,2.908,0,0,0,.734-2.759,2.917,2.917,0,0,0-2.2.217,2.9,2.9,0,0,0,.734,3.148Zm0-6.4A3.448,3.448,0,0,1,4.217.182,3.451,3.451,0,0,1,.734,3.65,3.441,3.441,0,0,1-2.749.217,3.452,3.452,0,0,1,.734-3.256" fill="#231f20"/>
        </g>
      </g>
    </g>
    <text id="PEOPLE_LOVE_US_ON" data-name="PEOPLE
LOVE US
ON" transform="translate(1701 1524)" fill="#fff" font-size="40" font-family="ArialMT, Arial"><tspan x="-80.039" y="0">PEOPLE</tspan><tspan font-family="Arial-Black, Arial" font-weight="800"><tspan x="-96.572" y="53">LOVE US</tspan></tspan><tspan x="-30" y="101">ON</tspan></text>
    <text id="yelp.com" transform="translate(1627 1785)" fill="#fff" font-size="38" font-family="ArialMT, Arial"><tspan x="0" y="0">yelp.com</tspan></text>
  </g>
</svg>
