<svg class="icon-phone" xmlns="http://www.w3.org/2000/svg" viewBox="0 0 100 100">
  <g id="Group_28" data-name="Group 28" transform="translate(-1842 -29)">
    <circle id="Ellipse_10" data-name="Ellipse 10" cx="50" cy="50" r="50" transform="translate(1842 29)"/>
    <path id="iconfinder_phone_1608790" d="M257,179.335a15.236,15.236,0,0,1-.462,3.255,18.336,18.336,0,0,1-.969,3.162q-.969,2.308-5.632,4.893a17.114,17.114,0,0,1-11.01,2.193,19.956,19.956,0,0,1-2.654-.577q-1.477-.415-2.193-.669t-2.562-.946q-1.847-.692-2.262-.831a41.811,41.811,0,0,1-8.079-3.832,68.483,68.483,0,0,1-12.211-9.949,68.482,68.482,0,0,1-9.949-12.211,41.812,41.812,0,0,1-3.832-8.079q-.138-.415-.831-2.262t-.946-2.562q-.254-.716-.669-2.193a19.954,19.954,0,0,1-.577-2.654,17.114,17.114,0,0,1,2.193-11.01q2.585-4.663,4.893-5.632a18.342,18.342,0,0,1,3.162-.969,15.237,15.237,0,0,1,3.255-.462,2.585,2.585,0,0,1,.969.138q.831.277,2.447,3.509.508.877,1.385,2.493t1.616,2.931q.739,1.316,1.431,2.47.138.185.808,1.154a12.892,12.892,0,0,1,.993,1.639,3.011,3.011,0,0,1,.323,1.316,3.832,3.832,0,0,1-1.316,2.308,22.5,22.5,0,0,1-2.862,2.539,27.8,27.8,0,0,0-2.862,2.447,3.517,3.517,0,0,0-1.316,2.124,3.119,3.119,0,0,0,.231,1.039,10.082,10.082,0,0,0,.392.946q.162.323.646,1.108t.531.877a45.755,45.755,0,0,0,18.881,18.881q.092.046.877.531t1.108.646a10.078,10.078,0,0,0,.946.392,3.119,3.119,0,0,0,1.039.231,3.517,3.517,0,0,0,2.124-1.316,27.8,27.8,0,0,0,2.447-2.862,22.5,22.5,0,0,1,2.539-2.862,3.832,3.832,0,0,1,2.308-1.316,3.011,3.011,0,0,1,1.316.323,12.9,12.9,0,0,1,1.639.993q.969.669,1.154.808,1.154.692,2.47,1.431t2.931,1.616q1.616.877,2.493,1.385,3.232,1.616,3.509,2.447A2.586,2.586,0,0,1,257,179.335Z" transform="translate(1668 -81)"/>
  </g>
</svg>
